<svg width="12" height="12" viewBox="0 0 12 12" fill="none" xmlns="http://www.w3.org/2000/svg">
<path d="M4.25154 2.14062L3.94651 2.21102C3.97414 2.33124 3.97759 2.45575 3.95667 2.57732C3.93575 2.69888 3.89087 2.81507 3.82464 2.91914C3.75842 3.02321 3.67217 3.11308 3.57091 3.18352C3.46964 3.25395 3.35538 3.30356 3.23478 3.32945C2.99022 3.3809 2.73524 3.33434 2.52464 3.19979C2.31403 3.06524 2.16463 2.85344 2.10852 2.6099L1.49847 2.73504C1.4148 2.75329 1.33571 2.78832 1.26597 2.838C1.19622 2.88768 1.13727 2.95098 1.09268 3.02409C1.04809 3.09719 1.01878 3.17857 1.00652 3.26332C0.994267 3.34807 0.999318 3.43442 1.02137 3.51716C1.02137 3.51716 1.30294 4.82331 1.63143 6.2937" stroke="#595959" stroke-width="0.782123" stroke-linecap="round" stroke-linejoin="round"/>
<path d="M10.1193 2.13289C10.0726 2.26459 9.99957 2.38542 9.90478 2.48808C9.80998 2.59073 9.69532 2.67307 9.56776 2.73011C9.4402 2.78714 9.30231 2.81768 9.16262 2.81988C9.02285 2.82208 8.88418 2.79588 8.7549 2.74289C8.62554 2.6899 8.50837 2.6112 8.41037 2.51158C8.31237 2.41195 8.23562 2.29348 8.18476 2.16332C8.13391 2.03316 8.11001 1.89402 8.11451 1.75436C8.11901 1.61469 8.15181 1.47739 8.21094 1.35077L7.57742 1.05356C7.40826 0.983064 7.21811 0.982123 7.04826 1.05094C6.87841 1.11976 6.74254 1.25279 6.67016 1.42116L4.04223 7.60775L3.69809 8.3899C3.6276 8.55907 3.62665 8.74921 3.69547 8.919C3.7643 9.08888 3.89732 9.22474 4.06569 9.29716L7.24111 10.6502C7.41027 10.7207 7.60042 10.7216 7.77028 10.6528C7.94013 10.584 8.07599 10.4509 8.14837 10.2826L11.1204 3.29043C11.186 3.12784 11.1878 2.9465 11.1254 2.78266C11.063 2.61882 10.9412 2.48453 10.7841 2.40664L10.1193 2.13289Z" stroke="#595959" stroke-width="0.782123" stroke-linecap="round" stroke-linejoin="round"/>
</svg>
