<svg width="18" height="18" viewBox="0 0 18 18" fill="none" xmlns="http://www.w3.org/2000/svg">
<path d="M3.75 9.56966C3.75 8.55134 3.75 8.04218 3.95585 7.59463C4.16169 7.14708 4.54827 6.81572 5.32144 6.15301L6.07144 5.51015C7.46893 4.3123 8.16767 3.71338 9 3.71338C9.83233 3.71338 10.5311 4.3123 11.9286 5.51015L12.6786 6.15301C13.4517 6.81572 13.8383 7.14708 14.0442 7.59463C14.25 8.04218 14.25 8.55134 14.25 9.56966V12.75C14.25 14.1642 14.25 14.8713 13.8107 15.3106C13.3713 15.75 12.6642 15.75 11.25 15.75H6.75C5.33579 15.75 4.62868 15.75 4.18934 15.3106C3.75 14.8713 3.75 14.1642 3.75 12.75V9.56966Z" stroke="#fff" stroke-width="0.782123"/>
<path d="M10.875 15.75V12.0321C10.875 11.6002 10.5248 11.25 10.0929 11.25H7.90712C7.47517 11.25 7.125 11.6002 7.125 12.0321V15.75" stroke="#fff" stroke-width="0.782123" stroke-linecap="round" stroke-linejoin="round"/>
</svg>
