<svg width="12" height="12" viewBox="0 0 12 12" fill="none" xmlns="http://www.w3.org/2000/svg">
<path d="M4.51955 8.0391H1.78212C1.57469 8.0391 1.37575 7.95671 1.22908 7.81003C1.0824 7.66335 1 7.46441 1 7.25698V1.78212C1 1.57469 1.0824 1.37575 1.22908 1.22908C1.37575 1.0824 1.57469 1 1.78212 1H9.60339C9.81081 1 10.0097 1.0824 10.1564 1.22908C10.3031 1.37575 10.3855 1.57469 10.3855 1.78212V5.30167" stroke="" stroke-width="0.782123" stroke-linecap="round" stroke-linejoin="round"/>
<path d="M1 1.9856L5.69273 5.3018L10.3855 1.9856" stroke="" stroke-width="0.782123" stroke-linecap="round" stroke-linejoin="round"/>
<path d="M6.28788 8.89992C6.01341 8.85213 6.01341 8.4581 6.28788 8.41039C7.28224 8.23738 8.07312 7.48 8.28895 6.49405L8.30549 6.41847C8.36487 6.14721 8.75114 6.14552 8.81285 6.41626L8.83295 6.50433C9.05679 7.48562 9.84783 8.23661 10.8395 8.40914C11.1153 8.45708 11.1153 8.85315 10.8395 8.90109C9.84783 9.07363 9.05679 9.82462 8.83295 10.806L8.81285 10.894C8.75114 11.1647 8.36487 11.1631 8.30549 10.8918L8.28895 10.8162C8.07312 9.83026 7.28224 9.07285 6.28788 8.89992Z" stroke="" stroke-width="0.782123" stroke-linecap="round" stroke-linejoin="round"/>
</svg>
