<svg width="19" height="19" viewBox="0 0 19 19" fill="none" xmlns="http://www.w3.org/2000/svg">
<circle cx="9.38543" cy="6.25701" r="1.95531" stroke="#595959" stroke-width="0.782123" stroke-linecap="round"/>
<path d="M10.7686 5.08383C10.9233 4.8159 11.154 4.59986 11.4314 4.46302C11.7089 4.32619 12.0207 4.27471 12.3275 4.31509C12.6342 4.35547 12.9221 4.4859 13.1547 4.68989C13.3873 4.89388 13.5541 5.16226 13.6342 5.4611C13.7143 5.75993 13.704 6.0758 13.6045 6.36876C13.5051 6.66172 13.321 6.91861 13.0755 7.10695C12.8301 7.29529 12.5343 7.40661 12.2256 7.42685C11.9169 7.44708 11.6091 7.37532 11.3412 7.22063" stroke="#595959" stroke-width="0.782123"/>
<path d="M8.00093 5.08383C7.84624 4.8159 7.61558 4.59986 7.3381 4.46302C7.06063 4.32619 6.74881 4.27471 6.44208 4.31509C6.13535 4.35547 5.84748 4.4859 5.61488 4.68989C5.38227 4.89388 5.21538 5.16226 5.13531 5.4611C5.05524 5.75993 5.06558 6.0758 5.16502 6.36876C5.26447 6.66172 5.44856 6.91861 5.694 7.10695C5.93945 7.29529 6.23523 7.40661 6.54395 7.42685C6.85267 7.44708 7.16045 7.37532 7.42838 7.22063" stroke="#595959" stroke-width="0.782123"/>
<path d="M9.38371 9.77661C12.575 9.77661 13.3987 12.3593 13.6114 13.6927C13.6794 14.1192 13.3352 14.4693 12.9033 14.4693H5.86415C5.4322 14.4693 5.088 14.1192 5.15602 13.6927C5.36867 12.3593 6.19246 9.77661 9.38371 9.77661Z" stroke="#595959" stroke-width="0.782123" stroke-linecap="round"/>
<path d="M15.0909 12.0574L15.4703 11.9624L15.4703 11.9624L15.0909 12.0574ZM10.2344 9.8437L9.94558 9.58002L9.46033 10.1115L10.1703 10.2295L10.2344 9.8437ZM13.4366 12.905L13.0609 13.0137L13.1426 13.2961H13.4366V12.905ZM12.1216 9.38545C12.9254 9.38545 13.4899 9.77858 13.9035 10.3294C14.3253 10.8913 14.5731 11.5993 14.7116 12.1524L15.4703 11.9624C15.3208 11.3654 15.0411 10.5419 14.5289 9.8598C14.0085 9.16666 13.2323 8.60332 12.1216 8.60332V9.38545ZM10.5232 10.1074C10.9145 9.67875 11.426 9.38545 12.1216 9.38545V8.60332C11.1695 8.60332 10.4584 9.01833 9.94558 9.58002L10.5232 10.1074ZM10.1703 10.2295C11.9695 10.5285 12.7308 11.8727 13.0609 13.0137L13.8122 12.7963C13.4437 11.5227 12.5275 9.82834 10.2985 9.45793L10.1703 10.2295ZM14.3858 12.5139H13.4366V13.2961H14.3858V12.5139ZM14.7116 12.1524C14.7537 12.3204 14.6302 12.5139 14.3858 12.5139V13.2961C15.0668 13.2961 15.653 12.692 15.4703 11.9624L14.7116 12.1524Z" fill="#595959"/>
<path d="M8.53767 9.8437L8.60178 10.2295L9.31172 10.1115L8.82647 9.58002L8.53767 9.8437ZM3.68111 12.0574L3.30177 11.9624L3.30177 11.9624L3.68111 12.0574ZM5.3355 12.905V13.2961H5.62946L5.71115 13.0137L5.3355 12.905ZM6.65049 9.38545C7.34605 9.38545 7.85753 9.67875 8.24888 10.1074L8.82647 9.58002C8.31363 9.01833 7.60252 8.60332 6.65049 8.60332V9.38545ZM4.06046 12.1524C4.19896 11.5993 4.4467 10.8913 4.86856 10.3294C5.28215 9.77858 5.84668 9.38545 6.65049 9.38545V8.60332C5.53973 8.60332 4.76357 9.16666 4.24312 9.8598C3.73093 10.5419 3.45126 11.3654 3.30177 11.9624L4.06046 12.1524ZM4.38623 12.5139C4.14182 12.5139 4.01838 12.3204 4.06046 12.1524L3.30177 11.9624C3.11904 12.692 3.70521 13.2961 4.38623 13.2961V12.5139ZM5.3355 12.5139H4.38623V13.2961H5.3355V12.5139ZM5.71115 13.0137C6.04126 11.8727 6.80251 10.5285 8.60178 10.2295L8.47357 9.45793C6.24458 9.82835 5.32832 11.5227 4.95984 12.7963L5.71115 13.0137Z" fill="#595959"/>
</svg>
