<svg width="19" height="19" viewBox="0 0 19 19" fill="none" xmlns="http://www.w3.org/2000/svg">
<circle cx="10.2448" cy="7.16204" r="1.95531" stroke="#595959" stroke-width="0.782123" stroke-linecap="round"/>
<path d="M11.628 5.98886C11.7827 5.72093 12.0133 5.50489 12.2908 5.36805C12.5683 5.23122 12.8801 5.17974 13.1868 5.22012C13.4936 5.2605 13.7814 5.39093 14.014 5.59492C14.2466 5.79891 14.4135 6.06729 14.4936 6.36612C14.5737 6.66496 14.5633 6.98083 14.4639 7.27379C14.3644 7.56675 14.1803 7.82364 13.9349 8.01198C13.6895 8.20032 13.3937 8.31164 13.085 8.33188C12.7762 8.35211 12.4685 8.28035 12.2005 8.12566" stroke="#595959" stroke-width="0.782123"/>
<path d="M8.86421 5.98886C8.70952 5.72093 8.47886 5.50489 8.20138 5.36805C7.92391 5.23122 7.61209 5.17974 7.30536 5.22012C6.99863 5.2605 6.71076 5.39093 6.47816 5.59492C6.24555 5.79891 6.07866 6.06729 5.99859 6.36612C5.91852 6.66496 5.92886 6.98083 6.02831 7.27379C6.12775 7.56675 6.31184 7.82364 6.55728 8.01198C6.80273 8.20032 7.09851 8.31164 7.40723 8.33188C7.71595 8.35211 8.02373 8.28035 8.29166 8.12566" stroke="#595959" stroke-width="0.782123"/>
<path d="M10.247 10.6814C13.4382 10.6814 14.262 13.2641 14.4747 14.5975C14.5427 15.024 14.1985 15.3741 13.7665 15.3741H6.72743C6.29548 15.3741 5.95128 15.024 6.01931 14.5975C6.23196 13.2641 7.05574 10.6814 10.247 10.6814Z" stroke="#595959" stroke-width="0.782123" stroke-linecap="round"/>
<path d="M15.9542 12.9624L15.5749 13.0574L15.5749 13.0574L15.9542 12.9624ZM11.0977 10.7487L10.8089 10.4851L10.3236 11.0165L11.0335 11.1345L11.0977 10.7487ZM14.2998 13.81L13.9242 13.9187L14.0059 14.2011H14.2998V13.81ZM12.9848 10.2905C13.7887 10.2905 14.3532 10.6836 14.7668 11.2344C15.1886 11.7963 15.4364 12.5043 15.5749 13.0574L16.3336 12.8674C16.1841 12.2704 15.9044 11.447 15.3922 10.7648C14.8718 10.0717 14.0956 9.50835 12.9848 9.50835V10.2905ZM11.3865 11.0124C11.7778 10.5838 12.2893 10.2905 12.9848 10.2905V9.50835C12.0328 9.50835 11.3217 9.92336 10.8089 10.4851L11.3865 11.0124ZM11.0335 11.1345C12.8328 11.4335 13.5941 12.7777 13.9242 13.9187L14.6755 13.7013C14.307 12.4277 13.3907 10.7334 11.1618 10.363L11.0335 11.1345ZM15.2491 13.419H14.2998V14.2011H15.2491V13.419ZM15.5749 13.0574C15.6169 13.2254 15.4935 13.419 15.2491 13.419V14.2011C15.9301 14.2011 16.5163 13.5971 16.3336 12.8674L15.5749 13.0574Z" fill="#595959"/>
<path d="M9.39314 10.7487L9.45725 11.1345L10.1672 11.0165L9.68194 10.4851L9.39314 10.7487ZM4.53658 12.9624L4.15723 12.8674L4.15723 12.8674L4.53658 12.9624ZM6.19097 13.81V14.2011H6.48493L6.56662 13.9187L6.19097 13.81ZM7.50596 10.2905C8.20152 10.2905 8.713 10.5838 9.10435 11.0124L9.68194 10.4851C9.1691 9.92336 8.45799 9.50835 7.50596 9.50835V10.2905ZM4.91593 13.0574C5.05443 12.5043 5.30216 11.7963 5.72403 11.2344C6.13762 10.6836 6.70215 10.2905 7.50596 10.2905V9.50835C6.3952 9.50835 5.61904 10.0717 5.09859 10.7648C4.5864 11.447 4.30673 12.2704 4.15723 12.8674L4.91593 13.0574ZM5.2417 13.419C4.99728 13.419 4.87385 13.2254 4.91593 13.0574L4.15723 12.8674C3.9745 13.5971 4.56068 14.2011 5.2417 14.2011V13.419ZM6.19097 13.419H5.2417V14.2011H6.19097V13.419ZM6.56662 13.9187C6.89673 12.7777 7.65798 11.4335 9.45725 11.1345L9.32903 10.363C7.10005 10.7334 6.18379 12.4277 5.81531 13.7013L6.56662 13.9187Z" fill="#595959"/>
</svg>
