<svg width="83" height="83" viewBox="0 0 83 83" fill="none" xmlns="http://www.w3.org/2000/svg">
<circle cx="41.5" cy="41.5" r="41.5" fill="white"/>
<circle cx="41.5" cy="41.5" r="10.375" fill="#FF5C00"/>
<path d="M44.5838 4.07047L43.4548 4.64805L43.4602 4.52016L44.5373 5.18951L44.3395 5.51757L43.2787 4.8409L43.3683 4.80459L43.3175 6.02754L42.9498 6.01224L43.0086 4.78963L43.0869 4.83292L41.9815 5.41949L41.8037 5.0758L42.9406 4.49855L42.9353 4.62644L41.8502 3.95677L42.0559 3.62904L43.1088 4.30537L43.0272 4.34202L43.07 3.11874L43.4377 3.13403L43.3869 4.35698L43.3006 4.31335L44.4139 3.72711L44.5838 4.07047Z" fill="#585858"/>
<path d="M49.2931 10.0003C48.8813 9.91111 48.5155 9.76094 48.1956 9.54978C47.8768 9.33341 47.6167 9.07247 47.4154 8.76695C47.2142 8.46143 47.0772 8.12345 47.0045 7.75302C46.9371 7.38371 46.9468 6.99837 47.0336 6.59699C47.1205 6.1956 47.2709 5.84074 47.4849 5.53238C47.7042 5.22516 47.9686 4.9741 48.2781 4.77919C48.5929 4.58542 48.9395 4.45858 49.3181 4.39868C49.6978 4.33356 50.0935 4.34558 50.5053 4.43476C50.9015 4.52054 51.2595 4.66901 51.5794 4.88017C51.9005 5.08611 52.1521 5.34797 52.3344 5.66575L51.8874 5.95367C51.7129 5.67577 51.5008 5.45795 51.2512 5.30022C51.0027 5.13727 50.7221 5.02193 50.4093 4.9542C50.0809 4.88309 49.7636 4.8744 49.4573 4.92813C49.1521 4.97664 48.8728 5.08258 48.6192 5.24594C48.3667 5.40409 48.1506 5.60832 47.9709 5.85863C47.7976 6.10486 47.6754 6.39218 47.6044 6.72058C47.5334 7.04899 47.5253 7.36374 47.5802 7.66485C47.6414 7.96187 47.7538 8.23722 47.9172 8.49088C48.0817 8.73932 48.2923 8.95136 48.5489 9.127C48.8067 9.29742 49.0998 9.41818 49.4282 9.48929C49.741 9.55702 50.0441 9.5681 50.3377 9.52254C50.6314 9.47698 50.915 9.36379 51.1888 9.18297L51.4768 9.63004C51.1795 9.84397 50.8416 9.98089 50.463 10.0408C50.0844 10.1007 49.6945 10.0872 49.2931 10.0003Z" fill="#585858"/>
<path d="M52.933 11.1362C52.5524 10.9969 52.2405 10.7861 51.9973 10.504C51.7609 10.2186 51.61 9.8936 51.5447 9.52889C51.4812 9.15917 51.5209 8.77897 51.6638 8.38829C51.8085 7.9926 52.0235 7.67659 52.3087 7.44025C52.594 7.20391 52.918 7.0556 53.2807 6.99533C53.6435 6.93507 54.0177 6.97553 54.4034 7.11674C54.794 7.25977 55.1084 7.47145 55.3466 7.75178C55.5898 8.03394 55.7416 8.35646 55.8019 8.71933C55.8673 9.08404 55.8276 9.46423 55.6828 9.85992C55.5399 10.2506 55.3249 10.5666 55.0379 10.808C54.7577 11.0461 54.4327 11.197 54.0631 11.2604C53.6953 11.3188 53.3186 11.2774 52.933 11.1362ZM53.1061 10.6629C53.3916 10.7674 53.6674 10.7974 53.9336 10.7529C54.2016 10.7034 54.4403 10.5863 54.6498 10.4018C54.8661 10.214 55.0302 9.96741 55.1419 9.66187C55.2555 9.35133 55.2894 9.05702 55.2434 8.77894C55.2025 8.50269 55.0948 8.26162 54.9202 8.05571C54.7475 7.8448 54.5209 7.68799 54.2405 7.5853C53.96 7.48261 53.6858 7.45603 53.4178 7.50557C53.1516 7.5501 52.9113 7.66373 52.6968 7.84645C52.4823 8.02917 52.3183 8.2758 52.2047 8.58634C52.0929 8.89188 52.0591 9.18619 52.1032 9.46928C52.1491 9.74736 52.2584 9.99186 52.4311 10.2028C52.6057 10.4087 52.8307 10.5621 53.1061 10.6629Z" fill="#585858"/>
<path d="M61.9125 10.8852C62.2082 11.0558 62.4313 11.2615 62.5818 11.5023C62.7396 11.7411 62.812 12.0107 62.799 12.311C62.7905 12.614 62.6851 12.9411 62.4827 13.2923L61.2642 15.4063L60.7722 15.1224L61.9627 13.0569C62.1838 12.6734 62.2579 12.3313 62.1849 12.0306C62.1193 11.728 61.9202 11.4807 61.5876 11.2888C61.3381 11.1449 61.0904 11.0728 60.8443 11.0724C60.6056 11.0701 60.3781 11.139 60.162 11.2791C59.9531 11.4172 59.7687 11.6248 59.6089 11.9021L58.5063 13.815L58.0143 13.5312L59.2048 11.4657C59.4259 11.0822 59.5 10.7401 59.4271 10.4394C59.3568 10.1341 59.1554 9.88552 58.8228 9.69362C58.5779 9.55235 58.3325 9.48155 58.0864 9.48122C57.8431 9.47626 57.6133 9.5438 57.3971 9.68385C57.1883 9.82195 57.0039 10.0296 56.8441 10.3069L55.7415 12.2198L55.2495 11.936L57.3469 8.29717L57.8181 8.56904L57.2508 9.55325L57.2745 9.33599C57.5372 9.13658 57.8335 9.03358 58.1636 9.02698C58.5009 9.01843 58.8382 9.11143 59.1755 9.306C59.5312 9.51124 59.7818 9.77592 59.9274 10.1001C60.0756 10.4196 60.0842 10.7785 59.953 11.177L59.8029 10.9888C60.0796 10.7544 60.4039 10.6244 60.7757 10.5987C61.1548 10.5712 61.5337 10.6667 61.9125 10.8852Z" fill="#585858"/>
<path d="M67.9262 15.9041C68.1792 16.1333 68.3538 16.3815 68.4502 16.6486C68.554 16.9154 68.5679 17.1942 68.4917 17.485C68.4195 17.7794 68.2474 18.0769 67.9754 18.3774L66.3382 20.1866L65.9172 19.8052L67.5169 18.0376C67.8139 17.7094 67.9585 17.3906 67.9507 17.0813C67.9504 16.7716 67.808 16.4879 67.5234 16.2301C67.3099 16.0367 67.083 15.9139 66.8426 15.8616C66.6097 15.809 66.3728 15.8283 66.132 15.9196C65.8987 16.0105 65.6747 16.1746 65.46 16.4118L63.9784 18.049L63.5574 17.6677L65.1571 15.9C65.4541 15.5718 65.5987 15.253 65.5909 14.9437C65.5867 14.6305 65.4423 14.3449 65.1577 14.0871C64.9482 13.8974 64.7232 13.7763 64.4828 13.7241C64.246 13.6678 64.0071 13.6854 63.7663 13.7766C63.533 13.8675 63.309 14.0316 63.0942 14.2689L61.6127 15.906L61.1917 15.5247L64.0099 12.4106L64.4131 12.7758L63.6508 13.6181L63.7198 13.4107C64.0186 13.2712 64.3301 13.2331 64.6541 13.2963C64.9856 13.3592 65.2957 13.5213 65.5842 13.7827C65.8886 14.0584 66.0777 14.37 66.1516 14.7176C66.2291 15.0612 66.1616 15.4139 65.9493 15.7757L65.8423 15.5601C66.1623 15.3893 66.5067 15.3307 66.8755 15.3841C67.2519 15.4372 67.6021 15.6105 67.9262 15.9041Z" fill="#585858"/>
<path d="M67.2432 21.7749C67.0241 21.4926 66.8855 21.2052 66.8273 20.9127C66.7691 20.6202 66.7995 20.3332 66.9186 20.0517C67.0409 19.7743 67.26 19.513 67.5759 19.2676L69.5029 17.7708L69.8511 18.2196L67.9747 19.6771C67.6209 19.9519 67.4204 20.246 67.3734 20.5595C67.3338 20.8738 67.4366 21.189 67.6818 21.505C67.8617 21.7368 68.0633 21.9009 68.2868 21.9975C68.5177 22.095 68.758 22.1177 69.0078 22.0655C69.2609 22.0175 69.5138 21.8954 69.7665 21.6991L71.5039 20.3495L71.8521 20.7983L68.5352 23.3747L68.2017 22.9449L69.1115 22.2382L69.0012 22.4353C68.6751 22.5197 68.356 22.5043 68.0437 22.3889C67.7389 22.2745 67.472 22.0698 67.2432 21.7749Z" fill="#585858"/>
<path d="M73.629 23.7318C73.7991 24.0277 73.8901 24.3199 73.902 24.6084C73.9213 24.8988 73.8512 25.1729 73.6917 25.4307C73.535 25.6931 73.2809 25.9254 72.9295 26.1275L70.8144 27.3439L70.5314 26.8514L72.598 25.6629C72.9818 25.4422 73.2149 25.1789 73.2975 24.873C73.3874 24.5691 73.3327 24.2437 73.1334 23.8969C72.9846 23.6379 72.8012 23.4419 72.5833 23.3088C72.3727 23.1777 72.1374 23.1161 71.8775 23.1241C71.6248 23.1341 71.3598 23.2188 71.0824 23.3783L69.1684 24.4791L68.8854 23.9866L72.5263 21.8927L72.7973 22.3644L71.7986 22.9387L71.942 22.7547C72.272 22.7188 72.584 22.7855 72.8781 22.9547C73.1768 23.1213 73.4271 23.3803 73.629 23.7318Z" fill="#585858"/>
<path d="M71.0476 28.0242L74.8799 26.3057L75.1121 26.8241L71.2798 28.5426L71.0476 28.0242ZM75.8444 26.1888C75.7964 26.0817 75.7926 25.9753 75.8329 25.8696C75.8732 25.7639 75.9444 25.6881 76.0466 25.6422C76.1488 25.5964 76.2503 25.5947 76.3512 25.6372C76.4569 25.6775 76.5337 25.7511 76.5817 25.8582C76.6296 25.9653 76.6359 26.0706 76.6005 26.1742C76.5651 26.2777 76.4963 26.3524 76.3941 26.3983C76.287 26.4463 76.1806 26.4501 76.0749 26.4099C75.9714 26.3745 75.8946 26.3008 75.8444 26.1888Z" fill="#585858"/>
<path d="M72.2179 31.071C72.0832 30.7 72.0797 30.3779 72.2074 30.1045C72.3351 29.8311 72.5819 29.6279 72.9478 29.4949L76.6546 28.1477L76.8484 28.6816L73.1717 30.0179C72.9411 30.1017 72.7841 30.224 72.7007 30.3848C72.619 30.5507 72.6183 30.7439 72.6984 30.9645C72.7839 31.2001 72.9226 31.371 73.1143 31.4772L72.7991 31.8046C72.6657 31.7339 72.5491 31.6316 72.4493 31.4976C72.3514 31.3686 72.2743 31.2264 72.2179 31.071ZM75.0821 27.9191L75.5257 27.7578L76.4131 30.2017L75.9695 30.363L75.0821 27.9191Z" fill="#585858"/>
<path d="M71.1557 32.8222C71.1072 32.6309 71.0916 32.4395 71.1091 32.248C71.1278 32.0616 71.1835 31.8907 71.2761 31.7351L71.752 31.8866C71.68 32.015 71.6332 32.1451 71.6117 32.2772C71.5863 32.4157 71.5926 32.5599 71.6307 32.7098C71.6766 32.8907 71.7676 33.0327 71.9038 33.1357C72.0361 33.2452 72.244 33.3272 72.5274 33.3818L73.1914 33.4938L73.2924 33.5342L77.4935 34.2502L77.6312 34.793L72.5545 33.9114C72.262 33.8646 72.0205 33.7911 71.83 33.6909C71.6409 33.5959 71.4949 33.4761 71.3922 33.3316C71.2844 33.1884 71.2055 33.0186 71.1557 32.8222ZM72.8578 33.5455L76.5689 30.6056L76.7144 31.1795L73.398 33.788L72.8578 33.5455Z" fill="#585858"/>
<path d="M78.9934 39.5454L78.2715 38.5029L78.3989 38.4912L77.8781 39.6475L77.5267 39.4949L78.057 38.3538L78.1049 38.4378L76.8859 38.5493L76.8524 38.1829L78.0721 38.0793L78.0395 38.1626L77.3118 37.1447L77.6289 36.9228L78.3516 37.9734L78.2241 37.985L78.7443 36.8208L79.0964 36.9814L78.5653 38.1145L78.5182 38.0384L79.7364 37.9189L79.7699 38.2854L78.551 38.3969L78.5828 38.3057L79.3112 39.3315L78.9934 39.5454Z" fill="#585858"/>
<path d="M73.8889 43.7659L78.9666 44.0901L79.0919 42.1261L79.6028 42.1588L79.3145 46.6776L78.8036 46.6449L78.9289 44.6809L73.8512 44.3567L73.8889 43.7659Z" fill="#585858"/>
<path d="M73.3203 47.8051C73.3987 47.3748 73.5566 47.0133 73.7942 46.7205C74.0371 46.4286 74.3326 46.2195 74.6808 46.0932C75.0343 45.9679 75.4157 45.9425 75.825 46.017C76.2342 46.0916 76.5805 46.2441 76.8638 46.4746C77.1462 46.7104 77.3489 46.9967 77.4719 47.3335C77.5992 47.6765 77.628 48.0396 77.5583 48.4226C77.4876 48.8109 77.3358 49.1384 77.103 49.4049C76.8745 49.6777 76.5844 49.8716 76.2328 49.9864C75.8865 50.1022 75.5061 50.1224 75.0916 50.0468C75.0653 50.0421 75.037 50.0342 75.0064 50.0232C74.9802 50.0184 74.9513 50.0132 74.9199 50.0074L75.5745 46.4105L75.9916 46.4865L75.3914 49.7843L75.2663 49.5338C75.5653 49.5883 75.8422 49.571 76.097 49.4819C76.356 49.399 76.5712 49.2593 76.7425 49.0628C76.9137 48.8663 77.0256 48.6238 77.0782 48.3352C77.1297 48.0518 77.1105 47.7854 77.0203 47.5359C76.9302 47.2863 76.7786 47.0771 76.5654 46.9082C76.3522 46.7392 76.0934 46.627 75.7891 46.5716L75.7025 46.5558C75.3877 46.4985 75.0972 46.516 74.831 46.6085C74.5691 46.7071 74.3475 46.8673 74.1662 47.0891C73.9892 47.3171 73.8716 47.5911 73.8133 47.9112C73.7675 48.163 73.7696 48.4047 73.8196 48.636C73.8687 48.8727 73.9708 49.0864 74.1258 49.2773L73.7064 49.5262C73.5195 49.3024 73.3936 49.0409 73.3288 48.7418C73.263 48.4479 73.2602 48.1357 73.3203 47.8051Z" fill="#585858"/>
<path d="M72.2968 51.7078C72.4204 51.3105 72.6178 50.981 72.8891 50.7191C73.164 50.4639 73.4819 50.2948 73.8428 50.2117C74.2089 50.1301 74.5905 50.1511 74.9877 50.2748C75.39 50.4 75.7162 50.5993 75.9663 50.8727C76.2164 51.146 76.3798 51.465 76.4563 51.8295C76.5312 52.1992 76.5069 52.5826 76.3834 52.9799C76.2773 53.3211 76.1153 53.6086 75.8974 53.8424C75.6794 54.0762 75.4135 54.2308 75.0996 54.3062L74.9505 53.8158C75.197 53.7417 75.4003 53.6178 75.5604 53.4442C75.7205 53.2706 75.8378 53.0642 75.9122 52.8248C76.0009 52.5396 76.0147 52.2618 75.9535 51.9914C75.8975 51.7226 75.7729 51.4855 75.5799 51.2802C75.3868 51.0749 75.1324 50.9231 74.8167 50.8248C74.501 50.7265 74.2054 50.7071 73.93 50.7666C73.6545 50.8261 73.415 50.9499 73.2113 51.1378C73.0127 51.3274 72.8691 51.5647 72.7804 51.8499C72.706 52.0893 72.6855 52.3259 72.7189 52.5597C72.7523 52.7935 72.8469 53.0101 73.0027 53.2094L72.6018 53.5287C72.3912 53.29 72.2599 53.0117 72.208 52.6939C72.1611 52.3777 72.1907 52.049 72.2968 51.7078Z" fill="#585858"/>
<path d="M74.6447 57.3129C74.5026 57.6233 74.3177 57.867 74.0899 58.0442C73.8647 58.2285 73.601 58.3306 73.2986 58.3504C72.994 58.375 72.6575 58.3029 72.289 58.134L70.0709 57.1173L70.3074 56.6009L72.4746 57.5943C72.877 57.7787 73.2266 57.8158 73.5235 57.7054C73.823 57.6022 74.0561 57.3687 74.2226 57.005C74.3469 56.7335 74.4 56.4703 74.3817 56.2155C74.3661 55.9678 74.2796 55.7404 74.1222 55.5334C73.9674 55.3333 73.7446 55.1667 73.4537 55.0333L71.4465 54.1133L71.683 53.5969L77.0791 56.0703L76.8426 56.5867L74.2173 55.3833L74.4603 55.3715C74.6811 55.6194 74.8081 55.9123 74.8411 56.2501C74.8789 56.5901 74.8135 56.9444 74.6447 57.3129Z" fill="#585858"/>
<path d="M71.6311 63.922L71.7396 62.6582L71.8452 62.7305L70.707 63.2892L70.5336 62.9475L71.6694 62.4066L71.6527 62.5018L70.6428 61.8103L70.8505 61.5065L71.856 62.2047L71.7778 62.2481L71.8661 60.9996L72.2517 61.031L72.1388 62.3013L72.0331 62.229L73.1758 61.6637L73.3447 62.0121L72.2134 62.5464L72.2256 62.4578L73.2401 63.1427L73.0323 63.4464L72.0224 62.7549L72.105 62.7049L72.0122 63.9599L71.6311 63.922Z" fill="#585858"/>
<path d="M64.0807 64.7902C64.3804 64.4865 64.707 64.2543 65.0604 64.0937C65.4138 63.9405 65.7753 63.859 66.1447 63.8491C66.5104 63.8431 66.869 63.9087 67.2205 64.046C67.5683 64.1872 67.8882 64.4021 68.1804 64.6907C68.4725 64.9793 68.6913 65.2966 68.8368 65.6428C68.9785 65.9927 69.0468 66.3525 69.0416 66.7222C69.0364 67.0919 68.9576 67.4527 68.8053 67.8045C68.6529 68.1638 68.4269 68.4953 68.1272 68.799C67.8275 69.1026 67.5066 69.3329 67.1645 69.4897C66.8186 69.6503 66.4609 69.7243 66.0913 69.7115L66.0823 69.1854C66.4141 69.1833 66.7153 69.1172 66.986 68.9873C67.2566 68.8573 67.5062 68.6765 67.7347 68.445C67.9783 68.1982 68.1613 67.9292 68.2839 67.638C68.4065 67.3543 68.4687 67.0597 68.4706 66.7541C68.4725 66.4561 68.4159 66.1641 68.301 65.8782C68.1861 65.5997 68.0092 65.3425 67.7702 65.1063C67.5349 64.8739 67.2755 64.7002 66.992 64.585C66.7048 64.4737 66.4103 64.419 66.1087 64.4209C65.8072 64.4303 65.5135 64.4963 65.2277 64.6188C64.942 64.7489 64.6792 64.9354 64.4395 65.1783C64.2147 65.4061 64.0372 65.6543 63.9069 65.923C63.7729 66.1954 63.7032 66.4976 63.6977 66.8296L63.143 66.7539C63.1634 66.3992 63.2554 66.0516 63.4192 65.711C63.5867 65.3742 63.8072 65.0673 64.0807 64.7902ZM63.5932 66.4002L65.0615 67.8508L64.6626 68.2551L63.143 66.7539L63.5932 66.4002Z" fill="#585858"/>
<path d="M62.1799 66.5594L64.7932 69.8473L64.3675 70.186L63.6557 69.2904L63.8239 69.4121C63.9312 69.7357 63.9278 70.0485 63.8136 70.3506C63.7028 70.6569 63.4867 70.9379 63.1653 71.1935L62.8218 70.7614C62.8385 70.7481 62.8552 70.7348 62.8719 70.7216C62.8919 70.7125 62.9103 70.7013 62.927 70.688C63.2734 70.4124 63.4601 70.0901 63.487 69.7211C63.5172 69.3563 63.378 68.9797 63.0694 68.5914L61.7354 66.913L62.1799 66.5594Z" fill="#585858"/>
<path d="M58.5912 69.0876C58.933 68.8698 59.2899 68.75 59.6616 68.7282C60.0317 68.7138 60.3814 68.7914 60.7106 68.9611C61.0427 69.1353 61.3204 69.3979 61.5438 69.7488C61.77 70.1043 61.8903 70.4672 61.9046 70.8374C61.919 71.2077 61.8399 71.5553 61.6673 71.8802C61.4948 72.2051 61.2353 72.4778 60.889 72.6985C60.5381 72.9219 60.179 73.0432 59.8118 73.0621C59.44 73.0839 59.0918 73.0085 58.7671 72.836C58.4378 72.6663 58.1601 72.4037 57.9339 72.0482C57.7106 71.6973 57.5903 71.3344 57.5731 70.9596C57.5542 70.5922 57.6319 70.2424 57.8061 69.9102C57.9831 69.5824 58.2448 69.3082 58.5912 69.0876ZM58.8618 69.5128C58.6054 69.6761 58.414 69.877 58.2876 70.1156C58.1642 70.3587 58.112 70.6195 58.1313 70.8981C58.1489 71.1841 58.2451 71.4643 58.4197 71.7388C58.5972 72.0177 58.8103 72.2235 59.059 72.356C59.3032 72.4913 59.56 72.5522 59.8295 72.5386C60.1019 72.5295 60.364 72.4447 60.6159 72.2843C60.8678 72.1238 61.0555 71.9221 61.179 71.679C61.3053 71.4405 61.3611 71.1804 61.3464 70.899C61.3316 70.6175 61.2355 70.3373 61.058 70.0583C60.8833 69.7838 60.6702 69.5781 60.4187 69.4411C60.17 69.3086 59.9095 69.2469 59.6371 69.256C59.3676 69.2696 59.1092 69.3552 58.8618 69.5128Z" fill="#585858"/>
<path d="M55.8041 70.7127L58.9382 73.9255L58.4398 74.1436L55.5595 71.1516L55.7867 71.0522L55.9921 75.2152L55.5451 75.4109L52.6428 72.4286L52.87 72.3291L53.0901 76.4857L52.6137 76.6943L52.389 72.2078L52.8801 71.9928L55.6381 74.7851L55.4842 74.8525L55.3131 70.9276L55.8041 70.7127Z" fill="#585858"/>
<path d="M49.7918 72.8892C50.1713 72.7808 50.4929 72.8 50.7565 72.9466C51.0202 73.0932 51.2054 73.3537 51.3121 73.7281L52.3937 77.5209L51.8475 77.6768L50.7747 73.9148C50.7074 73.6788 50.5966 73.5136 50.442 73.419C50.2824 73.3259 50.0897 73.3116 49.8641 73.376C49.623 73.4448 49.4428 73.5711 49.3233 73.755L49.0191 73.4175C49.099 73.2894 49.2093 73.1802 49.35 73.0901C49.4855 73.0015 49.6328 72.9345 49.7918 72.8892ZM52.7329 75.9682L52.8623 76.4221L50.3622 77.1357L50.2327 76.6818L52.7329 75.9682Z" fill="#585858"/>
<path d="M46.9697 77.8317C46.633 77.8875 46.3274 77.8706 46.0531 77.7809C45.7744 77.6973 45.5422 77.5358 45.3566 77.2963C45.1657 77.0576 45.0371 76.7383 44.9709 76.3384L44.5723 73.9312L45.1326 73.8383L45.5221 76.1903C45.5944 76.627 45.7594 76.9376 46.017 77.1219C46.2702 77.3124 46.5941 77.3749 46.9887 77.3095C47.2833 77.2607 47.5311 77.1575 47.7321 76.9998C47.9286 76.8483 48.0687 76.6494 48.1522 76.4031C48.2314 76.1629 48.2448 75.8849 48.1925 75.5692L47.8318 73.3909L48.3922 73.298L49.3619 79.1543L48.8016 79.2472L48.3298 76.398L48.4755 76.5927C48.3937 76.9145 48.222 77.1835 47.9605 77.3998C47.6998 77.6214 47.3696 77.7654 46.9697 77.8317Z" fill="#585858"/>
<path d="M39.7804 79.0316L40.8879 78.4139L40.8872 78.5419L39.7867 77.9117L39.9726 77.5767L41.0571 78.2148L40.9688 78.2543L40.9757 77.0303L41.3437 77.0324L41.3288 78.2564L41.2491 78.2159L42.3326 77.59L42.5227 77.9271L41.4072 78.5448L41.4079 78.4168L42.5164 79.0471L42.3225 79.382L41.2461 78.7439L41.3263 78.7043L41.3274 79.9284L40.9594 79.9263L40.9663 78.7023L41.0541 78.7428L39.9625 79.3687L39.7804 79.0316Z" fill="#585858"/>
<path d="M34.8379 73.2727C35.2526 73.347 35.6236 73.484 35.9509 73.6835C36.2772 73.8883 36.5465 74.1397 36.7586 74.4378C36.9707 74.7359 37.1197 75.0688 37.2056 75.4364C37.2862 75.803 37.2904 76.1884 37.218 76.5927C37.1456 76.9969 37.008 77.357 36.8051 77.6728C36.597 77.9877 36.3418 78.2481 36.0395 78.454C35.7319 78.6589 35.39 78.7981 35.0138 78.8716C34.6367 78.9503 34.2408 78.9525 33.8261 78.8781C33.4271 78.8066 33.0639 78.6711 32.7367 78.4716C32.4084 78.2773 32.1475 78.0246 31.954 77.7136L32.3904 77.4098C32.5747 77.6813 32.7945 77.8913 33.0496 78.04C33.3038 78.1939 33.5884 78.2991 33.9034 78.3556C34.2341 78.4149 34.5515 78.4121 34.8557 78.3475C35.1589 78.288 35.4343 78.1721 35.6819 77.9998C35.9286 77.8327 36.1372 77.6208 36.3077 77.3642C36.4721 77.1119 36.5839 76.8204 36.6431 76.4897C36.7024 76.1589 36.6991 75.8441 36.6335 75.5451C36.5616 75.2505 36.4395 74.9794 36.2671 74.7317C36.0938 74.4894 35.8757 74.285 35.6129 74.1187C35.3491 73.9577 35.0519 73.8475 34.7212 73.7882C34.4062 73.7318 34.1028 73.7316 33.811 73.7876C33.5192 73.8437 33.2398 73.967 32.9727 74.1575L32.6689 73.7211C32.9583 73.4966 33.2911 73.3477 33.6673 73.2742C34.0434 73.2008 34.4336 73.2003 34.8379 73.2727Z" fill="#585858"/>
<path d="M31.1577 72.27C31.5431 72.3955 31.8624 72.5949 32.1157 72.8681C32.3622 73.1447 32.5247 73.4641 32.6031 73.8262C32.68 74.1933 32.654 74.5747 32.5253 74.9703C32.3949 75.371 32.1915 75.6945 31.915 75.941C31.6385 76.1875 31.32 76.3474 30.9596 76.4207C30.5993 76.4941 30.2238 76.4671 29.8334 76.34C29.4378 76.2111 29.116 76.0109 28.8678 75.7394C28.6146 75.4662 28.4513 75.1494 28.3779 74.7889C28.2994 74.4268 28.3253 74.0454 28.4557 73.6448C28.5844 73.2492 28.7879 72.9256 29.066 72.6741C29.3375 72.4259 29.6567 72.2635 30.0238 72.1867C30.3893 72.1151 30.7672 72.1428 31.1577 72.27ZM31.0018 72.7493C30.7127 72.6551 30.436 72.6351 30.1716 72.6892C29.9056 72.7484 29.6712 72.874 29.4685 73.066C29.2591 73.2614 29.1041 73.5138 29.0034 73.8232C28.9011 74.1376 28.8779 74.4329 28.9338 74.7092C28.9847 74.9838 29.1011 75.2208 29.2829 75.4203C29.4631 75.6248 29.6952 75.7733 29.9792 75.8658C30.2632 75.9583 30.5382 75.975 30.8043 75.9158C31.0686 75.8617 31.3047 75.7394 31.5125 75.5491C31.7202 75.3588 31.8753 75.1064 31.9776 74.7919C32.0783 74.4826 32.1015 74.1872 32.0472 73.9059C31.9912 73.6297 31.8732 73.3893 31.6929 73.1847C31.5111 72.9853 31.2807 72.8401 31.0018 72.7493Z" fill="#585858"/>
<path d="M22.1996 72.8458C21.898 72.686 21.6677 72.4885 21.5086 72.2533C21.3423 72.0203 21.2602 71.7535 21.2625 71.4529C21.26 71.1498 21.3536 70.8191 21.5432 70.4609L22.6849 68.3044L23.1868 68.5704L22.0713 70.6774C21.8642 71.0686 21.8025 71.4131 21.8862 71.711C21.9627 72.0111 22.1706 72.251 22.5099 72.4308C22.7644 72.5657 23.0145 72.6288 23.2604 72.6203C23.4991 72.614 23.724 72.537 23.9349 72.3892C24.1387 72.2437 24.3155 72.0295 24.4652 71.7467L25.4983 69.7953L26.0002 70.0613L24.8847 72.1682C24.6776 72.5595 24.6159 72.904 24.6996 73.2019C24.7808 73.5044 24.991 73.7456 25.3303 73.9254C25.5801 74.0578 25.8279 74.1197 26.0738 74.1112C26.3172 74.1074 26.5444 74.0316 26.7554 73.8839C26.9592 73.7383 27.1359 73.5242 27.2856 73.2414L28.3187 71.2899L28.8206 71.5559L26.8555 75.2678L26.3748 75.0131L26.9063 74.0091L26.8905 74.2271C26.6352 74.4358 26.3427 74.5494 26.0131 74.5679C25.6763 74.5886 25.3358 74.5078 24.9918 74.3255C24.629 74.1332 24.3689 73.8777 24.2118 73.559C24.0521 73.2451 24.0307 72.8866 24.1474 72.4837L24.3042 72.6664C24.0361 72.9106 23.7167 73.0522 23.3461 73.0912C22.9682 73.1324 22.5861 73.0506 22.1996 72.8458Z" fill="#585858"/>
<path d="M16.0102 68.0448C15.7492 67.8248 15.5658 67.5831 15.46 67.3195C15.3467 67.0566 15.3229 66.7785 15.3886 66.4852C15.4503 66.1884 15.6116 65.885 15.8727 65.5749L17.4442 63.7084L17.8786 64.0744L16.3431 65.8981C16.058 66.2367 15.9249 66.5604 15.9437 66.8693C15.955 67.1788 16.1075 67.4572 16.4012 67.7047C16.6214 67.8903 16.8526 68.0049 17.0947 68.0486C17.3293 68.0928 17.5653 68.0651 17.8028 67.9653C18.0327 67.8661 18.2507 67.6941 18.4568 67.4493L19.8789 65.7603L20.3132 66.1263L18.7777 67.95C18.4926 68.2886 18.3595 68.6123 18.3784 68.9212C18.3938 69.2341 18.5483 69.5143 18.8419 69.7617C19.0581 69.9439 19.2872 70.0568 19.5294 70.1004C19.768 70.1482 20.0061 70.1221 20.2435 70.0223C20.4735 69.9231 20.6915 69.7511 20.8976 69.5064L22.3197 67.8173L22.754 68.1834L20.0489 71.3962L19.6329 71.0456L20.3646 70.1766L20.3031 70.3863C20.0094 70.5364 19.6995 70.5856 19.3735 70.534C19.0399 70.4831 18.7242 70.3321 18.4265 70.0812C18.1125 69.8166 17.9124 69.5119 17.8261 69.1672C17.7364 68.8265 17.7912 68.4717 17.9905 68.1025L18.1051 68.3142C17.7914 68.4963 17.4494 68.5672 17.0789 68.5269C16.7008 68.4873 16.3446 68.3266 16.0102 68.0448Z" fill="#585858"/>
<path d="M16.4863 62.1542C16.7153 62.4285 16.8641 62.7107 16.9327 63.0009C17.0013 63.2911 16.9812 63.5791 16.8723 63.8647C16.76 64.1463 16.5503 64.4153 16.2434 64.6718L14.3712 66.2366L14.0072 65.8006L15.8303 64.2768C16.174 63.9895 16.3638 63.6884 16.3996 63.3735C16.4279 63.0579 16.3139 62.7466 16.0575 62.4396C15.8695 62.2144 15.6621 62.0576 15.4354 61.9691C15.2011 61.8799 14.9601 61.8658 14.7123 61.9269C14.4612 61.9839 14.2128 62.1151 13.9673 62.3203L12.2792 63.7311L11.9152 63.2951L15.1378 60.6017L15.4865 61.0192L14.6026 61.758L14.7058 61.5571C15.0286 61.4611 15.3481 61.4651 15.6643 61.5692C15.973 61.6726 16.247 61.8676 16.4863 62.1542Z" fill="#585858"/>
<path d="M10.0276 60.4248C9.84708 60.1351 9.74565 59.8464 9.72336 59.5586C9.69372 59.269 9.75394 58.9926 9.90401 58.7292C10.0513 58.4613 10.2968 58.2201 10.6407 58.0056L12.7109 56.714L13.0113 57.196L10.9887 58.4579C10.6131 58.6923 10.3896 58.9638 10.318 59.2724C10.2391 59.5794 10.3054 59.9026 10.517 60.2421C10.675 60.4955 10.8653 60.6848 11.0878 60.81C11.3031 60.9335 11.5404 60.9865 11.7998 60.9693C12.052 60.9503 12.3138 60.8561 12.5852 60.6867L14.4585 59.5179L14.759 59.9999L11.1957 62.2231L10.9079 61.7615L11.8853 61.1517L11.7486 61.3407C11.4201 61.3885 11.1059 61.3331 10.806 61.1745C10.5015 61.0187 10.242 60.7688 10.0276 60.4248Z" fill="#585858"/>
<path d="M12.4592 56.0486L8.6917 57.905L8.44084 57.3954L12.2083 55.539L12.4592 56.0486ZM7.73207 58.0568C7.78389 58.1621 7.79159 58.2683 7.75516 58.3754C7.71873 58.4825 7.65028 58.5609 7.54981 58.6104C7.44935 58.6599 7.34796 58.6652 7.24565 58.6265C7.13856 58.59 7.0591 58.5192 7.00728 58.4139C6.95546 58.3087 6.94537 58.2036 6.97702 58.0989C7.00867 57.9941 7.07472 57.9169 7.17519 57.8674C7.28044 57.8156 7.38661 57.8079 7.4937 57.8443C7.59844 57.8759 7.6779 57.9467 7.73207 58.0568Z" fill="#585858"/>
<path d="M11.1737 53.0349C11.3217 53.4008 11.3367 53.7226 11.2189 54.0004C11.1012 54.2783 10.8618 54.4902 10.5009 54.6363L6.84499 56.1159L6.63208 55.5893L10.2583 54.1217C10.4858 54.0296 10.6383 53.9017 10.7159 53.738C10.7915 53.5693 10.7853 53.3762 10.6974 53.1586C10.6034 52.9262 10.4587 52.7604 10.2632 52.6612L10.5665 52.3227C10.7024 52.3885 10.8226 52.4866 10.927 52.6169C11.0295 52.7423 11.1117 52.8816 11.1737 53.0349ZM8.42462 56.2878L7.98709 56.4649L7.0125 54.0545L7.45002 53.8774L8.42462 56.2878Z" fill="#585858"/>
<path d="M12.1765 51.258C12.2319 51.4474 12.2544 51.6381 12.2439 51.8301C12.232 52.017 12.1826 52.1899 12.0957 52.3487L11.6146 52.2146C11.6819 52.0837 11.7239 51.9519 11.7406 51.8192C11.7609 51.6799 11.7494 51.536 11.7059 51.3875C11.6535 51.2084 11.5573 51.0698 11.4175 50.9719C11.2813 50.8673 11.0706 50.7929 10.7853 50.7487L10.1178 50.6608L10.0153 50.6242L5.79104 50.0615L5.63369 49.524L10.739 50.2204C11.033 50.2565 11.277 50.3211 11.471 50.4143C11.6635 50.5024 11.8137 50.6168 11.9216 50.7575C12.0346 50.8966 12.1195 51.0635 12.1765 51.258ZM10.4492 50.5971L6.84751 53.67L6.68117 53.1018L9.90051 50.3744L10.4492 50.5971Z" fill="#585858"/>
<path d="M4.09856 44.8147L4.85731 45.8307L4.73034 45.847L5.20953 44.6728L5.56612 44.8127L5.07697 45.972L5.02615 45.8898L6.24028 45.7347L6.28687 46.0997L5.07173 46.2469L5.10128 46.1625L5.86492 47.1537L5.55594 47.3867L4.79618 46.3628L4.92315 46.3466L4.44497 47.5287L4.08737 47.3808L4.57754 46.2294L4.62734 46.3037L3.41422 46.4668L3.36763 46.1017L4.58176 45.9466L4.55323 46.039L3.78857 45.0398L4.09856 44.8147Z" fill="#585858"/>
<path d="M9.05258 40.4296L3.96656 40.2879L3.91176 42.2551L3.39996 42.2409L3.52603 37.7146L4.03784 37.7289L3.98304 39.6961L9.06907 39.8378L9.05258 40.4296Z" fill="#585858"/>
<path d="M9.47917 36.3465C9.41624 36.7793 9.27127 37.1463 9.04425 37.4474C8.81195 37.7477 8.52404 37.9672 8.18052 38.1058C7.83172 38.2437 7.45149 38.2827 7.03983 38.2228C6.62816 38.1629 6.27666 38.0228 5.98532 37.8025C5.69475 37.577 5.48199 37.2981 5.34706 36.9659C5.20761 36.6276 5.1659 36.2658 5.22192 35.8805C5.2787 35.49 5.41869 35.1573 5.64187 34.8826C5.86054 34.6018 6.14351 34.3978 6.49078 34.2705C6.83276 34.1424 7.21223 34.1087 7.62917 34.1694C7.65556 34.1732 7.6842 34.1801 7.7151 34.19C7.74149 34.1938 7.77052 34.198 7.80218 34.2027L7.27615 37.8206L6.85657 37.7595L7.33886 34.4424L7.47288 34.6883C7.17205 34.6445 6.89593 34.6717 6.64453 34.7698C6.38861 34.8619 6.17857 35.0092 6.0144 35.2117C5.85022 35.4142 5.74704 35.6605 5.70483 35.9508C5.66339 36.2358 5.69214 36.5014 5.79109 36.7475C5.89004 36.9937 6.04905 37.1974 6.26813 37.3586C6.48721 37.5199 6.74981 37.6227 7.05592 37.6673L7.143 37.68C7.45966 37.7261 7.74936 37.6982 8.01209 37.5963C8.2703 37.4883 8.48605 37.3203 8.65934 37.0922C8.82812 36.8581 8.93591 36.5801 8.98272 36.2581C9.01956 36.0048 9.00884 35.7634 8.95059 35.5339C8.89309 35.2992 8.7835 35.0892 8.6218 34.904L9.03201 34.6403C9.22681 34.8573 9.36193 35.1141 9.43737 35.4107C9.51358 35.7021 9.52751 36.014 9.47917 36.3465Z" fill="#585858"/>
<path d="M10.3567 32.4239C10.2477 32.8253 10.0623 33.1618 9.80066 33.4334C9.53526 33.6984 9.2237 33.8789 8.86598 33.9751C8.50311 34.0699 8.12097 34.0627 7.71954 33.9536C7.31296 33.8431 6.97974 33.6558 6.71988 33.3917C6.46001 33.1276 6.28522 32.8148 6.19551 32.4532C6.1072 32.0866 6.11756 31.7025 6.2266 31.301C6.32026 30.9562 6.47174 30.663 6.68103 30.4215C6.89033 30.1799 7.15045 30.0157 7.46141 29.9289L7.62819 30.4137C7.38458 30.4967 7.18593 30.6278 7.03223 30.8071C6.87853 30.9864 6.76883 31.197 6.70313 31.4389C6.62485 31.7271 6.62116 32.0052 6.69206 32.2732C6.75782 32.5398 6.8909 32.7722 7.09129 32.9704C7.29169 33.1685 7.55143 33.311 7.87051 33.3978C8.18959 33.4845 8.48568 33.4931 8.75877 33.4237C9.03185 33.3542 9.26675 33.2219 9.46347 33.0267C9.65504 32.83 9.78996 32.5876 9.86824 32.2994C9.93395 32.0575 9.94586 31.8203 9.90399 31.5878C9.86213 31.3554 9.75971 31.1424 9.59674 30.9488L9.98578 30.6152C10.2049 30.8461 10.3462 31.1194 10.4097 31.4352C10.468 31.7495 10.4503 32.079 10.3567 32.4239Z" fill="#585858"/>
<path d="M7.80838 26.9084C7.93915 26.5932 8.11515 26.3428 8.33637 26.1575C8.5547 25.9652 8.8146 25.8536 9.11605 25.8229C9.41955 25.7872 9.75847 25.8471 10.1328 26.0025L12.3863 26.9381L12.1687 27.4627L9.96694 26.5486C9.5581 26.3789 9.20734 26.3545 8.91464 26.4755C8.61906 26.5896 8.39465 26.8313 8.2414 27.2008C8.12698 27.4767 8.0835 27.7416 8.11098 27.9956C8.13557 28.2425 8.23027 28.4666 8.39508 28.6679C8.557 28.8621 8.78574 29.0206 9.08128 29.1433L11.1205 29.99L10.9029 30.5146L5.42061 28.2385L5.63822 27.7139L8.30548 28.8212L8.06308 28.8419C7.8334 28.6022 7.69594 28.3141 7.6507 27.9777C7.60053 27.6393 7.65309 27.2828 7.80838 26.9084Z" fill="#585858"/>
<path d="M10.5861 20.1879L10.5229 21.4547L10.4148 21.3862L11.5323 20.7871L11.7177 21.1224L10.6021 21.7037L10.6153 21.6079L11.6494 22.2628L11.4526 22.5738L10.4228 21.9121L10.4994 21.8659L10.4558 23.1167L10.0693 23.0992L10.1367 21.8256L10.2449 21.8941L9.12313 22.4999L8.94194 22.1579L10.0533 21.5834L10.0443 21.6724L9.00603 21.0242L9.2028 20.7133L10.2368 21.3682L10.156 21.4211L10.2038 20.1636L10.5861 20.1879Z" fill="#585858"/>
<path d="M18.0969 19.0525C17.8082 19.3666 17.4901 19.6103 17.1427 19.7835C16.7949 19.9491 16.4366 20.0435 16.0678 20.0666C15.7026 20.0857 15.3418 20.0329 14.9856 19.9082C14.6331 19.7796 14.3056 19.5763 14.0034 19.2983C13.7011 19.0203 13.4711 18.7109 13.3134 18.3702C13.1593 18.0256 13.0782 17.6684 13.0702 17.2987C13.0622 16.9291 13.128 16.5658 13.2677 16.2088C13.4071 15.8442 13.6212 15.5049 13.9098 15.1907C14.1985 14.8765 14.511 14.6349 14.8473 14.466C15.1872 14.2931 15.5421 14.2065 15.9119 14.206L15.9396 14.7315C15.6081 14.7455 15.3095 14.8222 15.0436 14.9618C14.7778 15.1013 14.5348 15.2909 14.3147 15.5304C14.0802 15.7857 13.9068 16.0611 13.7947 16.3565C13.6823 16.6444 13.6306 16.941 13.6397 17.2465C13.6485 17.5444 13.7154 17.8342 13.8404 18.1158C13.9652 18.39 14.1512 18.6408 14.3985 18.8682C14.6419 19.0921 14.9073 19.2565 15.1947 19.3614C15.4858 19.4624 15.782 19.5066 16.0833 19.4939C16.3844 19.4737 16.6755 19.3973 16.9567 19.2646C17.2376 19.1245 17.4935 18.9287 17.7245 18.6774C17.941 18.4417 18.1095 18.1873 18.2301 17.9142C18.3543 17.6371 18.4132 17.3326 18.4068 17.0006L18.9639 17.0565C18.9562 17.4117 18.8766 17.7624 18.7251 18.1086C18.5697 18.4511 18.3603 18.7658 18.0969 19.0525ZM18.5266 17.426L17.0074 16.0288L17.3917 15.6105L18.9639 17.0565L18.5266 17.426Z" fill="#585858"/>
<path d="M19.9369 17.217L17.2077 14.0246L17.6211 13.6709L18.3644 14.5404L18.1919 14.4248C18.0731 14.1053 18.0654 13.7926 18.1687 13.4866C18.2685 13.1765 18.4744 12.888 18.7864 12.621L19.1451 13.0406C19.1289 13.0545 19.1127 13.0683 19.0965 13.0822C19.0768 13.092 19.0589 13.1039 19.0426 13.1177C18.7063 13.4055 18.5313 13.7343 18.5176 14.104C18.5004 14.4697 18.653 14.841 18.9753 15.218L20.3685 16.8477L19.9369 17.217Z" fill="#585858"/>
<path d="M23.4313 14.56C23.0975 14.7898 22.7452 14.9223 22.3745 14.9574C22.0051 14.9851 21.6529 14.92 21.3178 14.7622C20.9797 14.6 20.6927 14.3476 20.457 14.0048C20.2182 13.6577 20.085 13.2993 20.0574 12.9298C20.0298 12.5603 20.0964 12.2101 20.2572 11.8793C20.418 11.5484 20.6675 11.2665 21.0058 11.0336C21.3484 10.7977 21.7029 10.6637 22.0692 10.6317C22.44 10.5966 22.7907 10.6594 23.1214 10.8202C23.4565 10.978 23.7434 11.2305 23.9822 11.5776C24.218 11.9204 24.3512 12.2787 24.3818 12.6526C24.4138 13.0191 24.3487 13.3715 24.1865 13.7098C24.0213 14.0437 23.7696 14.3271 23.4313 14.56ZM23.1457 14.1447C23.3961 13.9723 23.5802 13.7647 23.6979 13.5217C23.8126 13.2744 23.8553 13.0119 23.8261 12.7341C23.7983 12.4489 23.6922 12.1723 23.5078 11.9043C23.3204 11.6319 23.1001 11.4339 22.8468 11.3104C22.598 11.1839 22.3391 11.1322 22.0703 11.1554C21.7984 11.1743 21.5395 11.2684 21.2935 11.4377C21.0475 11.6071 20.8671 11.8155 20.7524 12.0628C20.6347 12.3057 20.5883 12.5676 20.6131 12.8483C20.6379 13.1291 20.744 13.4057 20.9314 13.6782C21.1158 13.9462 21.3361 14.1442 21.5924 14.2721C21.8456 14.3956 22.1082 14.4479 22.38 14.4291C22.6489 14.4058 22.9041 14.3111 23.1457 14.1447Z" fill="#585858"/>
<path d="M26.1534 12.8396L22.9049 9.74269L23.395 9.50657L26.382 12.3921L26.1585 12.4997L25.8022 8.34682L26.2418 8.13501L29.2504 11.0101L29.027 11.1177L28.6562 6.97179L29.1247 6.74609L29.512 11.2215L29.0291 11.4542L26.1716 8.76381L26.3229 8.69089L26.6363 12.607L26.1534 12.8396Z" fill="#585858"/>
<path d="M32.0856 10.4445C31.7103 10.5665 31.3882 10.5591 31.1194 10.4221C30.8506 10.2852 30.6561 10.0316 30.5359 9.66126L29.3176 5.91013L29.8577 5.73453L31.0661 9.45522C31.1419 9.68855 31.2587 9.84966 31.4166 9.93855C31.5795 10.0258 31.7725 10.0331 31.9957 9.96058C32.2341 9.88309 32.4097 9.7503 32.5224 9.56223L32.8386 9.88844C32.7634 10.0194 32.6572 10.1325 32.5198 10.2276C32.3876 10.3211 32.2428 10.3934 32.0856 10.4445ZM29.0349 7.47416L28.8891 7.02524L31.3617 6.22141L31.5075 6.67033L29.0349 7.47416Z" fill="#585858"/>
<path d="M34.7445 5.39947C35.079 5.3317 35.385 5.33774 35.6623 5.41759C35.9438 5.49116 36.1816 5.64434 36.3756 5.87711C36.5749 6.10883 36.7147 6.42333 36.7951 6.82061L37.2791 9.21212L36.7224 9.3249L36.2495 6.98827C36.1617 6.5544 35.9858 6.24993 35.7219 6.07485C35.4621 5.89349 35.1361 5.84252 34.7441 5.92194C34.4514 5.98124 34.2074 6.09324 34.0122 6.25795C33.8212 6.41637 33.6883 6.62014 33.6136 6.86927C33.543 7.11212 33.5395 7.39036 33.6029 7.704L34.0409 9.86813L33.4842 9.9809L32.3067 4.16286L32.8634 4.05008L33.4363 6.88069L33.2837 6.69122C33.3541 6.36679 33.5161 6.09182 33.7697 5.8663C34.0223 5.63556 34.3472 5.47995 34.7445 5.39947Z" fill="#585858"/>
</svg>
