<svg width="353" height="122" viewBox="0 0 353 122" fill="none" xmlns="http://www.w3.org/2000/svg">
<path d="M36.9475 115V26.125H23.885V5H72.01V26.125H58.9475V115H36.9475ZM80.695 115V5H124.695V26.25H103.07V47.6875H123.82V68.375H103.07V93.5625H126.133V115H80.695ZM133.005 115L143.63 5H180.943L191.38 115H170.568L169.005 97.25H155.755L154.38 115H133.005ZM157.318 79.6875H167.318L162.505 23.75H161.505L157.318 79.6875ZM200.69 115V5H234.19L243.44 72.0625L252.628 5H286.44V115H266.315V35.75L253.69 115H233.94L220.565 35.75V115H200.69ZM324.875 116C314.833 116 307.583 113.5 303.125 108.5C298.708 103.5 296.5 95.5417 296.5 84.625V73.875H318.25V87.625C318.25 90.1667 318.625 92.1667 319.375 93.625C320.167 95.0417 321.521 95.75 323.438 95.75C325.438 95.75 326.812 95.1667 327.562 94C328.354 92.8333 328.75 90.9167 328.75 88.25C328.75 84.875 328.417 82.0625 327.75 79.8125C327.083 77.5208 325.917 75.3542 324.25 73.3125C322.625 71.2292 320.354 68.8125 317.438 66.0625L307.562 56.6875C300.188 49.7292 296.5 41.7708 296.5 32.8125C296.5 23.4375 298.667 16.2917 303 11.375C307.375 6.45833 313.688 4 321.938 4C332.021 4 339.167 6.6875 343.375 12.0625C347.625 17.4375 349.75 25.6042 349.75 36.5625H327.375V29C327.375 27.5 326.938 26.3333 326.062 25.5C325.229 24.6667 324.083 24.25 322.625 24.25C320.875 24.25 319.583 24.75 318.75 25.75C317.958 26.7083 317.562 27.9583 317.562 29.5C317.562 31.0417 317.979 32.7083 318.812 34.5C319.646 36.2917 321.292 38.3542 323.75 40.6875L336.438 52.875C338.979 55.2917 341.312 57.8542 343.438 60.5625C345.562 63.2292 347.271 66.3542 348.562 69.9375C349.854 73.4792 350.5 77.8125 350.5 82.9375C350.5 93.2708 348.583 101.375 344.75 107.25C340.958 113.083 334.333 116 324.875 116Z" fill="#585858"/>
<path d="M37 53H336.619C339.5 56 343.21 59.7593 344 61C347.5 66.5 349.23 70.2121 350 77C350.5 81.5 350.5 83.5 350.332 88H37V53Z" fill="#FF5C00" fill-opacity="0.31"/>
</svg>
