<svg viewBox="0 0 84 54" fill="none" xmlns="http://www.w3.org/2000/svg">
<path d="M46.6862 49.0357C43.5535 49.0357 41.113 48.4032 39.3646 47.1383C37.6525 45.8733 36.4505 44.1691 35.7584 42.0257C35.1027 39.8823 34.7749 37.493 34.7749 34.8576V19.7835C34.7749 16.9022 35.1027 14.3899 35.7584 12.2465C36.4505 10.103 37.6525 8.45157 39.3646 7.29203C41.113 6.09734 43.5535 5.5 46.6862 5.5C49.4545 5.5 51.6401 5.99193 53.2428 6.97579C54.882 7.95964 56.0476 9.36516 56.7397 11.1923C57.4682 13.0195 57.8325 15.2156 57.8325 17.7807V21.1539H51.9861V18.1496C51.9861 16.5684 51.8951 15.1805 51.7129 13.9858C51.5672 12.756 51.1301 11.8072 50.4016 11.1396C49.6731 10.472 48.4528 10.1382 46.7408 10.1382C44.9924 10.1382 43.7175 10.5071 42.9161 11.245C42.1147 11.9478 41.5865 12.9668 41.3316 14.302C41.113 15.6021 41.0037 17.1306 41.0037 18.8875V35.8063C41.0037 37.9497 41.1859 39.6539 41.5501 40.9189C41.9144 42.1487 42.5154 43.0272 43.3532 43.5542C44.191 44.0813 45.3202 44.3448 46.7408 44.3448C48.4164 44.3448 49.6184 43.9934 50.347 43.2907C51.0755 42.5528 51.5308 41.5514 51.7129 40.2864C51.8951 39.0214 51.9861 37.5457 51.9861 35.859V32.6966H57.8325V35.859C57.8325 38.4592 57.5046 40.7608 56.849 42.7636C56.1933 44.7313 55.0641 46.2774 53.4614 47.4018C51.8586 48.4911 49.6002 49.0357 46.6862 49.0357Z" fill="#fff"/>
<path d="M64.4403 48.7438C63.4596 48.7438 62.64 48.5411 61.9816 48.1356C61.3371 47.7302 60.8467 47.1694 60.5105 46.4531C60.1743 45.7368 59.9781 44.9057 59.9221 43.9597L62.0236 43.4123C62.0656 43.9934 62.1567 44.5543 62.2968 45.0949C62.4509 45.6355 62.6961 46.0814 63.0323 46.4328C63.3685 46.7707 63.8379 46.9396 64.4403 46.9396C65.0567 46.9396 65.5191 46.7774 65.8273 46.4531C66.1495 46.1152 66.3106 45.6355 66.3106 45.0138C66.3106 44.2705 66.1355 43.6759 65.7853 43.2299C65.435 42.7704 64.9937 42.3109 64.4613 41.8514L61.6033 39.4188C61.0429 38.9458 60.6296 38.4322 60.3634 37.8781C60.0972 37.3105 59.9641 36.6145 59.9641 35.7901C59.9641 34.5873 60.3214 33.6548 61.0359 32.9926C61.7504 32.3304 62.7241 31.9993 63.957 31.9993C64.6294 31.9993 65.2178 32.0871 65.7222 32.2628C66.2406 32.425 66.6679 32.6818 67.0041 33.0332C67.3544 33.3845 67.6276 33.8305 67.8237 34.3711C68.0339 34.8982 68.174 35.5198 68.244 36.2361L66.2266 36.7632C66.1845 36.2226 66.1005 35.7293 65.9744 35.2833C65.8483 34.8238 65.6241 34.4589 65.3019 34.1887C64.9937 33.9048 64.5454 33.7629 63.957 33.7629C63.3685 33.7629 62.9062 33.9184 62.57 34.2292C62.2477 34.5265 62.0866 34.9725 62.0866 35.5671C62.0866 36.0672 62.1707 36.4794 62.3388 36.8037C62.5209 37.1281 62.8081 37.4592 63.2004 37.797L66.0795 40.2296C66.7239 40.7702 67.2913 41.4189 67.7817 42.1757C68.272 42.919 68.5172 43.8042 68.5172 44.8313C68.5172 45.6422 68.3421 46.345 67.9918 46.9396C67.6416 47.5207 67.1582 47.9667 66.5418 48.2775C65.9394 48.5884 65.2389 48.7438 64.4403 48.7438Z" fill="#fff"/>
<path d="M70.3593 48.5614V32.1412H76.958V33.844H72.734V39.2769H76.1594V40.8986H72.734V46.9193H77V48.5614H70.3593Z" fill="#fff"/>
<path d="M17.8507 38.4392V40.0361C17.8507 40.7136 17.6729 41.2019 17.3172 41.5011C16.9523 41.8002 16.4735 41.9498 15.8806 41.9498C14.5672 41.9498 13.9104 41.0039 13.9104 39.1123C13.9104 37.335 14.1841 35.9976 14.7313 35.1001L15.3333 35.8656C15.0415 36.4815 14.8955 37.5637 14.8955 39.1123C14.8955 39.8689 14.9822 40.3793 15.1555 40.6432C15.3288 40.8984 15.5705 41.0259 15.8806 41.0259C16.1907 41.0259 16.4324 40.9556 16.6057 40.8148C16.779 40.674 16.8657 40.4145 16.8657 40.0361V38.3996C16.8657 37.2118 17.0755 36.1428 17.495 35.1925C17.9146 34.2335 18.4892 33.446 19.2189 32.8301C19.9395 32.2142 20.774 31.7435 21.7226 31.418C22.6621 31.0924 23.67 30.9296 24.7463 30.9296C25.6219 30.9296 26.4519 31.0484 27.2363 31.286C28.0207 31.5235 28.7413 31.8843 29.398 32.3682C30.0547 32.8433 30.6248 33.4196 31.1082 34.0971C31.5825 34.7658 31.9519 35.5665 32.2164 36.4991C32.49 37.423 32.6269 38.426 32.6269 39.5082C32.6269 41.2063 32.3578 42.7989 31.8196 44.2858C31.2906 45.764 30.5473 46.9957 29.5895 47.9812L29.0012 47.2157C29.8404 46.3183 30.4925 45.1964 30.9577 43.8503C31.4138 42.4953 31.6418 41.0479 31.6418 39.5082C31.6418 38.3028 31.4639 37.2162 31.1082 36.2483C30.7434 35.2717 30.2463 34.471 29.6169 33.8464C28.9876 33.2129 28.2579 32.7289 27.4279 32.3946C26.5978 32.0515 25.704 31.8799 24.7463 31.8799C23.4784 31.8799 22.3337 32.1262 21.3122 32.619C20.2815 33.1117 19.4469 33.8639 18.8085 34.8758C18.17 35.8788 17.8507 37.0666 17.8507 38.4392ZM18.8358 40.0361V38.5316C18.8358 36.7455 19.4013 35.3509 20.5323 34.3479C21.6633 33.336 23.068 32.8301 24.7463 32.8301C26.4519 32.8301 27.8657 33.4152 28.9876 34.5854C30.1003 35.7556 30.6567 37.3966 30.6567 39.5082C30.6567 40.916 30.456 42.2313 30.0547 43.4543C29.6534 44.6773 29.0879 45.6936 28.3582 46.503L27.7425 45.764C28.3536 45.0425 28.8279 44.1362 29.1654 43.0452C29.5029 41.9454 29.6716 40.7664 29.6716 39.5082C29.6716 37.6517 29.211 36.2351 28.2898 35.2585C27.3686 34.2731 26.1874 33.7804 24.7463 33.7804C23.3234 33.7804 22.1468 34.1939 21.2164 35.021C20.2861 35.8392 19.8209 37.0138 19.8209 38.5448V40.0361C19.8209 41.3207 19.456 42.2841 18.7264 42.9264C17.9967 43.5687 17.0481 43.8899 15.8806 43.8899C14.7131 43.8899 13.7645 43.4939 13.0348 42.7021C12.3051 41.9014 11.9403 40.7048 11.9403 39.1123C11.9403 37.9949 12.0771 36.9566 12.3507 35.9976C12.6153 35.0386 12.9983 34.2467 13.5 33.622L14.102 34.3743C13.3176 35.4741 12.9254 37.0534 12.9254 39.1123C12.9254 40.4408 13.199 41.4131 13.7463 42.029C14.2844 42.6361 14.9959 42.9396 15.8806 42.9396C16.7745 42.9396 17.4905 42.7153 18.0286 42.2665C18.5667 41.809 18.8358 41.0655 18.8358 40.0361ZM20.806 40.0361V38.5844C20.806 37.2998 21.1754 36.3363 21.9142 35.694C22.653 35.0518 23.597 34.7306 24.7463 34.7306C25.9138 34.7306 26.8624 35.1309 27.592 35.9316C28.3217 36.7235 28.6866 37.9157 28.6866 39.5082C28.6866 40.6256 28.5543 41.6682 28.2898 42.6361C28.0162 43.5951 27.6285 44.387 27.1269 45.0117L26.5249 44.2594C27.3093 43.1596 27.7015 41.5759 27.7015 39.5082C27.7015 38.1796 27.4324 37.2118 26.8943 36.6047C26.347 35.9888 25.631 35.6808 24.7463 35.6808C23.8615 35.6808 23.1501 35.9096 22.6119 36.3671C22.0647 36.8247 21.791 37.5681 21.791 38.5976V40.0361C21.791 41.8398 21.2347 43.252 20.1219 44.2726C19 45.2844 17.5862 45.7903 15.8806 45.7903C14.175 45.7903 12.7658 45.2052 11.653 44.035C10.5311 42.8648 9.97015 41.2239 9.97015 39.1123C9.97015 37.7045 10.1708 36.3935 10.5721 35.1793C10.9735 33.9563 11.539 32.9401 12.2687 32.1306L12.8843 32.8697C12.2732 33.5912 11.7989 34.4974 11.4614 35.5885C11.124 36.6795 10.9552 37.8541 10.9552 39.1123C10.9552 40.9688 11.4158 42.3897 12.3371 43.3752C13.2583 44.3518 14.4395 44.8401 15.8806 44.8401C17.3126 44.8401 18.4938 44.4266 19.4241 43.5995C20.3454 42.7725 20.806 41.5847 20.806 40.0361ZM22.7761 40.0361V38.5844C22.7761 37.9069 22.9585 37.4186 23.3234 37.1194C23.6882 36.8203 24.1625 36.6707 24.7463 36.6707C26.0597 36.6707 26.7164 37.6165 26.7164 39.5082C26.7164 41.2943 26.4428 42.6361 25.8955 43.5335L25.2935 42.7681C25.5854 42.1522 25.7313 41.0655 25.7313 39.5082C25.7313 38.7515 25.6447 38.2456 25.4714 37.9905C25.2981 37.7265 25.0564 37.5945 24.7463 37.5945C24.4453 37.5945 24.2081 37.6693 24.0348 37.8189C23.8524 37.9597 23.7612 38.2236 23.7612 38.6108V40.0361C23.7612 41.2503 23.556 42.3501 23.1455 43.3356C22.7351 44.3122 22.1696 45.1173 21.449 45.7508C20.7284 46.3755 19.8939 46.855 18.9453 47.1893C17.9967 47.5237 16.9751 47.6908 15.8806 47.6908C15.005 47.6908 14.175 47.572 13.3905 47.3345C12.6061 47.0969 11.8856 46.7406 11.2289 46.2655C10.5721 45.7816 10.0066 45.2052 9.53234 44.5366C9.04892 43.8591 8.67496 43.0584 8.41045 42.1346C8.13682 41.2019 8 40.1945 8 39.1123C8 37.4142 8.26907 35.826 8.80721 34.3479C9.33624 32.8697 10.0796 31.6379 11.0373 30.6525L11.6256 31.418C10.7865 32.3154 10.1389 33.4372 9.68284 34.7834C9.21766 36.1296 8.98507 37.5725 8.98507 39.1123C8.98507 40.3177 9.1675 41.4087 9.53234 42.3853C9.88806 43.3532 10.3806 44.1538 11.0099 44.7873C11.6393 45.412 12.369 45.8959 13.199 46.2391C14.029 46.5734 14.9229 46.7406 15.8806 46.7406C17.1667 46.7406 18.325 46.4898 19.3557 45.9883C20.3864 45.4868 21.2164 44.7213 21.8458 43.6919C22.466 42.6625 22.7761 41.4439 22.7761 40.0361Z" fill="#fff"/>
<path d="M16.7289 12.3208L17.2624 13.0994C16.5328 13.5746 15.9581 14.1949 15.5386 14.9603C15.1099 15.717 14.8955 16.5397 14.8955 17.4283C14.8955 18.8713 15.4245 20.1031 16.4826 21.1237C17.5406 22.1443 18.8176 22.6546 20.3134 22.6546C21.8093 22.6546 23.0862 22.1443 24.1443 21.1237C25.2023 20.1031 25.7313 18.8713 25.7313 17.4283C25.7313 16.5397 25.517 15.717 25.0883 14.9603C24.6596 14.1949 24.0804 13.5746 23.3507 13.0994L23.9254 12.334C24.7827 12.8971 25.4623 13.6273 25.9639 14.5248C26.4656 15.4222 26.7164 16.3901 26.7164 17.4283C26.7164 18.2642 26.5477 19.0648 26.2102 19.8303C25.8727 20.587 25.4167 21.2425 24.842 21.7968C24.2674 22.3511 23.5879 22.791 22.8035 23.1166C22.0099 23.4421 21.1799 23.6049 20.3134 23.6049C19.4469 23.6049 18.6215 23.4421 17.8371 23.1166C17.0435 22.791 16.3595 22.3511 15.7848 21.7968C15.2102 21.2425 14.7541 20.587 14.4167 19.8303C14.0792 19.0648 13.9104 18.2642 13.9104 17.4283C13.9104 16.3813 14.1658 15.409 14.6766 14.5116C15.1783 13.6141 15.8624 12.8839 16.7289 12.3208ZM15.607 10.7502L16.1405 11.5421C15.1555 12.1932 14.3756 13.0378 13.801 14.0761C13.2172 15.1055 12.9254 16.2229 12.9254 17.4283C12.9254 18.7217 13.2583 19.9139 13.9241 21.0049C14.5808 22.0959 15.4747 22.9626 16.6057 23.6049C17.7367 24.2384 18.9726 24.5551 20.3134 24.5551C21.6542 24.5551 22.8901 24.2384 24.0211 23.6049C25.1522 22.9626 26.0506 22.0959 26.7164 21.0049C27.3731 19.9139 27.7015 18.7217 27.7015 17.4283C27.7015 16.2229 27.4096 15.1011 26.8259 14.0629C26.2421 13.0246 25.4531 12.18 24.459 11.5289L25.0199 10.7502C26.1509 11.4893 27.0448 12.4483 27.7015 13.6273C28.3582 14.7976 28.6866 16.0645 28.6866 17.4283C28.6866 18.8889 28.3126 20.2394 27.5647 21.48C26.8167 22.7206 25.7997 23.7017 24.5137 24.4231C23.2276 25.1446 21.8275 25.5054 20.3134 25.5054C18.7993 25.5054 17.3993 25.1446 16.1132 24.4231C14.8271 23.7017 13.8101 22.7206 13.0622 21.48C12.3143 20.2394 11.9403 18.8889 11.9403 17.4283C11.9403 16.0645 12.2687 14.7976 12.9254 13.6273C13.5821 12.4483 14.476 11.4893 15.607 10.7502ZM14.5124 9.16649L15.046 9.95836C13.7873 10.7854 12.7931 11.8588 12.0634 13.1786C11.3246 14.4896 10.9552 15.9062 10.9552 17.4283C10.9552 18.6513 11.2015 19.8215 11.694 20.9389C12.1866 22.0563 12.8524 23.0198 13.6915 23.8292C14.5216 24.6299 15.5158 25.2678 16.6741 25.7429C17.8325 26.218 19.0456 26.4556 20.3134 26.4556C21.5813 26.4556 22.7944 26.218 23.9527 25.7429C25.1111 25.2678 26.1099 24.6299 26.949 23.8292C27.779 23.0198 28.4403 22.0563 28.9328 20.9389C29.4254 19.8215 29.6716 18.6513 29.6716 17.4283C29.6716 15.8974 29.3022 14.4764 28.5634 13.1654C27.8246 11.8544 26.8259 10.7854 25.5672 9.95836L26.1555 9.19289C27.5419 10.1079 28.641 11.2913 29.4527 12.7431C30.2554 14.1861 30.6567 15.7478 30.6567 17.4283C30.6567 19.232 30.1961 20.8993 29.2749 22.4303C28.3445 23.9612 27.0858 25.1754 25.4988 26.0729C23.9117 26.9615 22.1832 27.4058 20.3134 27.4058C18.4436 27.4058 16.7152 26.9615 15.1281 26.0729C13.541 25.1754 12.2869 23.9612 11.3657 22.4303C10.4353 20.8993 9.97015 19.232 9.97015 17.4283C9.97015 15.739 10.3806 14.1685 11.2015 12.7167C12.0133 11.2649 13.1169 10.0815 14.5124 9.16649ZM13.3905 7.60916L13.9241 8.40102C12.4009 9.40405 11.1969 10.7018 10.3122 12.2944C9.42745 13.8781 8.98507 15.5894 8.98507 17.4283C8.98507 18.9065 9.28607 20.323 9.88806 21.678C10.4809 23.0242 11.2836 24.1856 12.296 25.1622C13.3085 26.1388 14.517 26.9175 15.9216 27.4982C17.3172 28.0701 18.7811 28.3561 20.3134 28.3561C21.8458 28.3561 23.3143 28.0701 24.7189 27.4982C26.1144 26.9175 27.3184 26.1388 28.3308 25.1622C29.3433 24.1856 30.1505 23.0242 30.7525 21.678C31.3454 20.323 31.6418 18.9065 31.6418 17.4283C31.6418 15.5894 31.1949 13.8737 30.301 12.2812C29.4071 10.6886 28.1986 9.39086 26.6754 8.38782L27.2774 7.62235C28.9191 8.71337 30.2235 10.1211 31.1903 11.8456C32.148 13.5702 32.6269 15.431 32.6269 17.4283C32.6269 19.0384 32.2985 20.5782 31.6418 22.0475C30.9942 23.5081 30.1231 24.7707 29.0286 25.8353C27.925 26.8911 26.6161 27.7358 25.102 28.3693C23.5788 28.994 21.9826 29.3063 20.3134 29.3063C18.6443 29.3063 17.0527 28.994 15.5386 28.3693C14.0153 27.7358 12.7065 26.8911 11.6119 25.8353C10.5083 24.7707 9.63267 23.5081 8.98507 22.0475C8.32836 20.5782 8 19.0384 8 17.4283C8 15.4222 8.48342 13.557 9.45025 11.8324C10.4171 10.1079 11.7305 8.70017 13.3905 7.60916Z" fill="#fff"/>
<path d="M64.8269 23.0662C63.8603 23.0662 63.0617 22.8567 62.4312 22.4378C61.8148 22.0188 61.3525 21.4444 61.0443 20.7147C60.75 19.9849 60.6029 19.1537 60.6029 18.2212V11.1464C60.6029 10.1868 60.75 9.34894 61.0443 8.63267C61.3385 7.90288 61.7938 7.33527 62.4102 6.92984C63.0407 6.5244 63.8462 6.32168 64.8269 6.32168C65.8076 6.32168 66.6062 6.5244 67.2226 6.92984C67.8391 7.33527 68.2944 7.90288 68.5886 8.63267C68.8828 9.34894 69.0299 10.1868 69.0299 11.1464V18.2212C69.0299 19.1672 68.8758 20.0051 68.5676 20.7349C68.2734 21.4647 67.8181 22.0391 67.2016 22.458C66.5852 22.8635 65.7936 23.0662 64.8269 23.0662ZM64.8269 21.2823C65.3593 21.2823 65.7586 21.1336 66.0248 20.8363C66.305 20.539 66.4941 20.1606 66.5922 19.7011C66.7043 19.2281 66.7603 18.7415 66.7603 18.2415V11.1261C66.7603 10.599 66.7113 10.1058 66.6132 9.64626C66.5151 9.17325 66.326 8.79484 66.0458 8.51104C65.7796 8.22723 65.3733 8.08533 64.8269 8.08533C64.2806 8.08533 63.8673 8.22723 63.5871 8.51104C63.3069 8.79484 63.1177 9.17325 63.0197 9.64626C62.9216 10.1058 62.8726 10.599 62.8726 11.1261V18.2415C62.8726 18.7415 62.9216 19.2281 63.0197 19.7011C63.1317 20.1606 63.3279 20.539 63.6081 20.8363C63.9023 21.1336 64.3086 21.2823 64.8269 21.2823Z" fill="#fff"/>
<path d="M73.834 22.8837V9.30164C73.82 9.31515 73.6589 9.3557 73.3506 9.42327C73.0564 9.49084 72.7202 9.55841 72.3419 9.62599C71.9636 9.69356 71.6274 9.75438 71.3332 9.80843C71.039 9.86249 70.8849 9.88952 70.8709 9.88952V8.2475C71.109 8.19345 71.3822 8.11912 71.6904 8.02452C72.0127 7.92991 72.3349 7.81504 72.6571 7.67989C72.9934 7.54475 73.3086 7.37582 73.6028 7.1731C73.911 6.97038 74.1702 6.73388 74.3804 6.46359H76.0826V22.8837H73.834Z" fill="#fff"/>
</svg>
